<?xml version="1.0" encoding="utf-8"?>
<?xml-stylesheet type="text/xsl" href="rss1.xsl"?>
<rss version="2.0" xmlns:atom="http://www.w3.org/2005/Atom" xmlns:content="http://purl.org/rss/1.0/modules/content/" xmlns:dc="http://purl.org/dc/elements/1.1/" xmlns:media="http://search.yahoo.com/mrss/">
<channel>
 <title>Getty</title>
 <link>http://www.gettyimg.com/</link>
 <atom:link href="http://www.gettyimg.com/" rel="self" type="application/rss+xml" />

 
                <item>
                <title><![CDATA[【PRORES HD】Lena - Stardust |ProRes 1080|]]></title>
                <link><![CDATA[https://sharemania.us/threads/lena-stardust-prores-1080.227748/]]></link>
                <description><![CDATA[<article>
<blockquote class="messageText SelectQuoteContainer ugc baseHtml">
<div style="text-align: center"><img src="https://i.imgur.com/2onGH14.gif" class="bbCodeImage LbImage" alt="[​IMG]" data-url="https://i.imgur.com/2onGH14.gif" style=""><br>
<br>
​</div>
<div class="ToggleTriggerAnchor bbCodeSpoilerContainer">
<button type="button" class="button bbCodeSpoilerButton ToggleTrigger Tooltip JsOnly" data-target="> .SpoilerTarget"><span>Spoiler: <span class="SpoilerTitle">ProRes</span></span></button>
<div class="SpoilerTarget bbCodeSpoilerText">
<div class="bbCodeBlock bbCodeCode">
<div class="type">Code:</div>
<pre>Format                                   : MPEG-4
Format profile                           : QuickTime
Codec ID                                 : qt   2005.03 (qt  )
File size                                : 2.18 GiB
Duration                                 : 3 min 34 s
Overall bit rate mode                    : Variable
Overall bit rate                         : 87.5 Mb/s
Encoded date                             : UTC 2012-09-03 18:11:51
Tagged date                              : UTC 2012-09-03 18:18:30
Writing library                          : Apple QuickTime
TIM                                      : 00:00:00:00
TSC                                      : 25
TSZ                                      : 1

Video
ID                                       : 1
Format                                   : AVC
Format/Info                              : Advanced Video Codec
Format profile                           : Main@L5.1
Format settings                          : 2 Ref Frames
Format settings, CABAC                   : No
Format settings, Reference frames        : 2 frames
Format settings, GOP                     : N=1
Codec ID                                 : avc1
Codec ID/Info                            : Advanced Video Coding
Duration                                 : 3 min 34 s
Bit rate mode                            : Variable
Bit rate                                 : 87.3 Mb/s
Width                                    : 1 920 pixels
Height                                   : 820 pixels
Display aspect ratio                     : 2.35:1
Frame rate mode                          : Constant
Frame rate                               : 25.000 FPS
Color space                              : YUV
Chroma subsampling                       : 4:2:0
Bit depth                                : 8 bits
Scan type                                : Progressive
Bits/(Pixel*Frame)                       : 2.219
Stream size                              : 2.18 GiB (100%)
Language                                 : English
Encoded date                             : UTC 2012-09-03 18:11:51
Tagged date                              : UTC 2012-09-03 18:18:30
Color range                              : Limited
Color primaries                          : BT.709
Transfer characteristics                 : BT.709
Matrix coefficients                      : BT.709
Codec configuration box                  : avcC

Audio
ID                                       : 2
Format                                   : AAC LC
Format/Info                              : Advanced Audio Codec Low Complexity
Codec ID                                 : mp4a-40-2
Duration                                 : 3 min 34 s
Source duration                          : 3 min 34 s
Bit rate mode                            : Constant
Bit rate                                 : 128 kb/s
Channel(s)                               : 2 channels
Channel layout                           : L R
Sampling rate                            : 48.0 kHz
Frame rate                               : 46.875 FPS (1024 SPF)
Compression mode                         : Lossy
Stream size                              : 3.28 MiB (0%)
Source stream size                       : 3.28 MiB (0%)
Language                                 : English
Encoded date                             : UTC 2012-09-03 18:11:51
Tagged date                              : UTC 2012-09-03 18:18:30

Other
ID                                       : 3
Type                                     : Time code
Format                                   : QuickTime TC
Duration                                 : 3 min 34 s
Frame rate                               : 25.000 FPS
Time code of first frame                 : 00:00:00:00
Time code, striped                       : Yes
Language                                 : English
Encoded date                             : UTC 2012-09-03 18:18:30
Tagged date                              : UTC 2012-09-03 18:18:30</pre>
</div><div style="text-align: center">​</div></div>
</div><div style="text-align: center"><br>
<br>
<div class="bbCodeBlock bbCodeVfcHH HiddenContent">
<div class="attribution type">Hidden Content:</div>
<blockquote>You must reply before you can see the hidden data contained here.</blockquote>
</div></div>
<div class="messageTextEndMarker">&nbsp;</div>
</blockquote>
</article>]]></description>
                <author><![CDATA[fstambuk]]></author>
                </item>

                
                <item>
                <title><![CDATA[【Requests】Filled - [REQ AUD] Luísa Sonza live @ The Town (09/03/2023) FLAC]]></title>
                <link><![CDATA[https://sharemania.us/threads/req-aud-lu%C3%ADsa-sonza-live-the-town-09-03-2023-flac.227749/]]></link>
                <description><![CDATA[<article>
<blockquote class="messageText SelectQuoteContainer ugc baseHtml">
Hey guys! Could you available me the audio of Luísa Sonza's concert live at The Town (09/03/2023) in FLAC, track by track? <br>
I'll be very grateful for that! <img src="styles/default/xenforo/clear.png" class="mceSmilieSprite mceSmilie72" alt=":relaxed:" title="Relaxed    :relaxed:"><img src="styles/default/xenforo/clear.png" class="mceSmilieSprite mceSmilie52" alt=":hearteyes:" title="Heart Eyes    :hearteyes:">
<div class="messageTextEndMarker">&nbsp;</div>
</blockquote>
</article>]]></description>
                <author><![CDATA[EncrySys]]></author>
                </item>

                </channel></rss>